# xmcd CD database file
#
# Track frame offsets:
#	150
#	18968
#	37492
#	84582
#	106279
#	121370
#	145796
#	166555
#	186983
#
# Disc length: 2865 seconds
#
# Revision: 1
# Processed by: cddbd v1.5.1PL2 Copyright (c) Steve Scherf et al.
# Submitted via: CDex 1.51
#
DISCID=720b2f09
DTITLE=Jesse Ballard - Paradise Island Band
DYEAR=1998
DGENRE=Blues
TTITLE0=Provocated Farewell
TTITLE1=Fasanenstrasse
TTITLE2=Wind
TTITLE3=Gypsy Night
TTITLE4=Musik Jail
TTITLE5=Slip away
TTITLE6=Livin´like Fire
TTITLE7=Paradise Island Bar
TTITLE8=Troubles In My Bag
EXTD=YEAR: 1998
EXTT0=
EXTT1=
EXTT2=
EXTT3=
EXTT4=
EXTT5=
EXTT6=
EXTT7=
EXTT8=
PLAYORDER=
